<svg xmlns="http://www.w3.org/2000/svg" viewBox="0 0 64 64" width="64" height="64" role="img"><title>PythonTap</title><rect width="64" height="64" rx="14" fill="#2B211C"/><path d="M8 40 L8.5 40.65 L9 41.29 L9.5 41.91 L10 42.5 L10.5 43.04 L11 43.54 L11.5 43.97 L12 44.33 L12.5 44.62 L13 44.83 L13.5 44.96 L14 45 L14.5 44.96 L15 44.83 L15.5 44.62 L16 44.33 L16.5 43.97 L17 43.54 L17.5 43.04 L18 42.5 L18.5 41.91 L19 41.29 L19.5 40.65 L20 40 L20.5 39.35 L21 38.71 L21.5 38.09 L22 37.5 L22.5 36.96 L23 36.46 L23.5 36.03 L24 35.67 L24.5 35.38 L25 35.17 L25.5 35.04 L26 35 L26.5 35.04 L27 35.17 L27.5 35.38 L28 35.67 L28.5 36.03 L29 36.46 L29.5 36.96 L30 37.5 L30.5 38.09 L31 38.71 L31.5 39.35 L32 40 L32.5 40.65 L33 41.29 L33.5 41.91 L34 42.5 L34.5 43.04 L35 43.54 L35.5 43.97 L36 44.33 L36.5 44.62 L37 44.83 L37.5 44.96 L38 45 L38.5 44.96 L39 44.83 L39.5 44.62 L40 44.33 L40.5 43.97 L41 43.54 L41.5 43.04 L42 42.5 L42.5 41.91 L43 41.29 L43.5 40.65 L44 40 L44.5 39.35 L45 38.71 L45.5 38.09 L46 37.5 L46.5 36.96 L47 36.46 L47.5 36.03 L48 35.67 L48.5 35.38 L49 35.17 L49.5 35.04 L50 35 L50.5 35.04 L51 35.17 L51.5 35.38 L52 35.67" stroke="#F3E9DA" stroke-width="3" fill="none" stroke-linecap="round" stroke-linejoin="round"/><line x1="14" y1="45" x2="14" y2="27" stroke="#F3E9DA" stroke-width="3.2" stroke-linecap="round"/><circle cx="14" cy="27" r="3" fill="#F3E9DA"/><line x1="23" y1="36.46" x2="23" y2="18.46" stroke="#F3E9DA" stroke-width="3.2" stroke-linecap="round"/><circle cx="23" cy="18.46" r="3" fill="#F3E9DA"/><line x1="32" y1="40" x2="32" y2="22" stroke="#F3E9DA" stroke-width="3.2" stroke-linecap="round"/><circle cx="32" cy="22" r="3" fill="#F3E9DA"/><line x1="41" y1="43.54" x2="41" y2="25.54" stroke="#F3E9DA" stroke-width="3.2" stroke-linecap="round"/><circle cx="41" cy="25.54" r="3" fill="#F3E9DA"/><circle cx="52" cy="35.67" r="4.8" fill="#4F6B3E"/></svg>
